<?xml version="1.0" encoding="utf-8"?>
<!-- Generator: Adobe Illustrator 22.0.1, SVG Export Plug-In . SVG Version: 6.00 Build 0)  -->
<svg version="1.1" id="Layer_1" xmlns="http://www.w3.org/2000/svg" xmlns:xlink="http://www.w3.org/1999/xlink" x="0px" y="0px"
	 viewBox="0 0 74.7 3.2" style="enable-background:new 0 0 74.7 3.2;" xml:space="preserve">
<style type="text/css">
	.st0{fill:#4C4C4D;}
</style>
<path class="st0" d="M59.3,3.2H15.5c-0.6,0-1-0.4-1-1V1c0-0.6,0.4-1,1-1h43.8c0.6,0,1,0.4,1,1v1.2C60.3,2.8,59.8,3.2,59.3,3.2z"/>
<path class="st0" d="M66.5,3.2h-1.2c-0.6,0-1-0.4-1-1V1c0-0.6,0.4-1,1-1h1.2c0.6,0,1,0.4,1,1v1.2C67.5,2.8,67,3.2,66.5,3.2z"/>
<path class="st0" d="M73.7,3.2h-1.2c-0.6,0-1-0.4-1-1V1c0-0.6,0.4-1,1-1h1.2c0.6,0,1,0.4,1,1v1.2C74.7,2.8,74.3,3.2,73.7,3.2z"/>
<path class="st0" d="M8.2,3.2h1.2c0.6,0,1-0.4,1-1V1c0-0.6-0.4-1-1-1L8.2,0c-0.6,0-1,0.4-1,1v1.2C7.2,2.8,7.7,3.2,8.2,3.2z"/>
<path class="st0" d="M1,3.2h1.2c0.6,0,1-0.4,1-1V1c0-0.6-0.4-1-1-1L1,0C0.5,0,0,0.4,0,1l0,1.2C0,2.8,0.5,3.2,1,3.2z"/>
</svg>
